HIERARCHY
ROOT hip
{
	OFFSET 0.000000 0.000000 0.000000 
	CHANNELS 6 Xposition Yposition Zposition Xrotation Zrotation Yrotation
	JOINT abdomen
	{
		OFFSET 0.000000 3.402643 0.000000 
		CHANNELS 3 Xrotation Zrotation Yrotation
		JOINT chest
		{
			OFFSET 0.000000 8.438565 -0.680529 
			CHANNELS 3 Xrotation Zrotation Yrotation
			JOINT neck
			{
				OFFSET 0.000000 10.207942 -0.272212 
				CHANNELS 3 Xrotation Zrotation Yrotation
				JOINT head
				{
					OFFSET 0.000000 3.130431 0.000000 
					CHANNELS 3 Xrotation Zrotation Yrotation
					End Site
					{
						OFFSET 0.000000 3.130435 0.000000 
					}
				}
			}
			JOINT lCollar
			{
				OFFSET 3.470700 6.669187 -0.816635 
				CHANNELS 3 Yrotation Zrotation Xrotation
				JOINT lShldr
				{
					OFFSET 3.198488 0.000000 0.000000 
					CHANNELS 3 Zrotation Yrotation Xrotation
					JOINT lForeArm
					{
						OFFSET 10.139888 0.000000 0.000000 
						CHANNELS 3 Yrotation Zrotation Xrotation
						JOINT lHand
						{
							OFFSET 8.370511 0.000000 0.000000 
							CHANNELS 3 Zrotation Yrotation Xrotation
							End Site
							{
								OFFSET 4.083176 0.000000 0.000000 
							}
						}
					}
				}
			}
			JOINT rCollar
			{
				OFFSET -3.470700 6.669187 -0.816635 
				CHANNELS 3 Yrotation Zrotation Xrotation
				JOINT rShldr
				{
					OFFSET -3.198488 0.000000 0.000000 
					CHANNELS 3 Zrotation Yrotation Xrotation
					JOINT rForeArm
					{
						OFFSET -10.139888 0.000000 0.000000 
						CHANNELS 3 Yrotation Zrotation Xrotation
						JOINT rHand
						{
							OFFSET -8.370511 0.000000 0.000000 
							CHANNELS 3 Zrotation Yrotation Xrotation
							End Site
							{
								OFFSET -4.083176 0.000000 0.000000 
							}
						}
					}
				}
			}
		}
	}
	JOINT lThigh
	{
		OFFSET 5.308129 -1.633274 1.361059 
		CHANNELS 3 Xrotation Zrotation Yrotation
		JOINT lShin
		{
			OFFSET -2.041588 -20.007561 0.000000 
			CHANNELS 3 Xrotation Zrotation Yrotation
			JOINT lFoot
			{
				OFFSET 0.000000 -19.190928 -1.224953 
				CHANNELS 3 Xrotation Yrotation Zrotation
				End Site
				{
					OFFSET 0.000000 -2.449906 4.627600 
				}
			}
		}
	}
	JOINT rThigh
	{
		OFFSET -5.308129 -1.633274 1.361059 
		CHANNELS 3 Xrotation Zrotation Yrotation
		JOINT rShin
		{
			OFFSET 2.041588 -20.007561 0.000000 
			CHANNELS 3 Xrotation Zrotation Yrotation
			JOINT rFoot
			{
				OFFSET 0.000000 -19.190928 -1.224953 
				CHANNELS 3 Xrotation Yrotation Zrotation
				End Site
				{
					OFFSET 0.000000 -2.449906 4.627600 
				}
			}
		}
	}
}
MOTION
Frames: 6
Frame Time: 0.125000
0.143696 51.299892 0.907528 0.000000 0.000000 0.000000 5.307079 1.819185 0.391475 3.190581 0.538992 -1.526044 9.764724 15.085043 -4.469843 14.785184 2.757278 -0.734877 10.150491 -23.487434 -0.906855 -57.336952 9.036460 16.604456 -15.215108 -6.693749 0.666733 5.986724 -13.031652 6.268255 -6.933756 23.127861 -0.897401 58.265560 -15.807424 17.484438 17.816498 7.917415 0.721836 -14.269826 16.223961 4.875776 -16.658178 4.582153 0.142818 36.744213 -4.106324 -2.944625 -20.303635 1.272561 0.179027 -16.687483 -5.246403 0.223974 36.752136 4.087901 2.765075 -20.383694 -1.792126 0.302863 
0.076598 51.502033 0.905731 0.000000 0.000000 0.000000 5.049602 1.727493 0.359094 2.930668 0.488389 -1.495389 7.757948 13.224239 -4.689834 17.831587 2.448078 -0.688829 9.293200 -22.461380 -0.766091 -61.321999 2.407839 15.699847 -7.285934 -3.921122 1.237554 4.147914 -13.323170 5.533541 -6.335641 20.632030 -0.764577 59.871971 -15.177347 17.200527 18.516705 8.090249 0.643583 -13.412811 14.859772 4.587570 -15.913192 4.599987 0.126979 35.168339 -4.047858 -2.771796 -19.482512 1.257607 0.001064 -15.918473 -5.110083 0.195470 35.133091 4.075587 2.582875 -19.531765 -1.777976 0.270139 
0.006822 51.797436 0.907170 0.000000 0.000000 0.000000 4.873050 1.660160 0.332031 2.695310 0.429688 -1.533130 5.800930 8.543290 -4.436980 19.928101 2.257940 -0.841370 8.651860 -21.047899 -0.671249 -64.522903 -1.233390 15.116800 -2.877800 -2.404530 1.576700 3.576910 -13.689700 4.998450 -5.923300 17.982800 -0.663372 61.577202 -14.422100 16.909800 19.629601 8.336660 0.508398 -12.593100 13.374500 4.514890 -14.914725 4.633420 0.112050 33.057182 -4.031233 -2.551847 -18.377634 1.239856 -0.170703 -14.921168 -4.945498 0.162268 33.025394 4.018061 2.370488 -18.433397 -1.774147 0.259141 
-0.060695 52.153702 0.904650 0.000000 0.000000 0.000000 4.789203 1.610265 0.311925 2.481924 0.359446 -1.624835 3.965812 0.683171 -3.466973 20.362661 2.244793 -1.189440 8.530806 -19.348545 -0.567267 -65.990120 0.362171 15.175092 -4.545782 -3.027608 1.523196 4.822812 -13.687481 4.854286 -5.882018 15.523208 -0.542537 63.296432 -13.612172 16.701387 20.734823 8.674776 0.372060 -11.786927 11.885411 4.677032 -13.514303 4.613746 0.098561 30.076254 -3.947519 -2.230090 -16.803822 1.204630 -0.378850 -13.497585 -4.753647 0.134972 30.025068 3.929608 2.056772 -16.864035 -1.761516 0.295758 
-0.088566 52.319691 0.876697 0.000000 0.000000 0.000000 4.760690 1.562490 0.263942 2.346360 0.273323 -1.689460 3.411130 -7.076660 -1.857520 19.420200 2.282440 -1.172560 8.694780 -17.895599 -0.468477 -66.346802 4.467560 15.565900 -9.175900 -4.680900 1.270050 6.836360 -13.447900 4.927160 -6.034830 13.087300 -0.424609 64.804001 -12.880300 16.568800 21.652201 9.007340 0.259150 -11.089300 10.602200 4.927000 -12.877205 4.597680 0.108244 28.674175 -3.895868 -2.091653 -16.040916 1.192015 -0.476671 -12.873507 -4.669855 0.130282 28.631384 3.895708 1.903377 -16.089514 -1.747491 0.319557 
-0.030504 52.091610 0.813238 0.000000 0.000000 0.000000 4.748466 1.508401 0.166625 2.338025 0.176342 -1.658777 5.181490 -11.747730 0.294793 17.479019 2.236912 -0.552468 8.839161 -17.157475 -0.400062 -66.441803 7.812075 15.903572 -13.021851 -6.037336 1.051039 8.427768 -13.203826 4.999090 -6.162859 10.606241 -0.341767 65.882317 -12.348351 16.485928 22.277214 9.230963 0.183871 -10.592193 9.712322 5.109981 -13.891641 4.591877 0.111585 30.645491 -3.961747 -2.287609 -16.999388 1.208353 -0.317608 -13.892447 -4.811054 0.145433 30.594234 3.944263 2.113632 -17.030657 -1.764640 0.312211 
